<?xml version="1.0" encoding="UTF-8" standalone="no"?>
<!-- Created with Inkscape (http://www.inkscape.org/) -->
<svg
 xmlns="http://www.w3.org/2000/svg"
 xmlns:sodipodi="http://sodipodi.sourceforge.net/DTD/sodipodi-0.dtd"
 xmlns:inkscape="http://www.inkscape.org/namespaces/inkscape"
 xmlns:xlink="http://www.w3.org/1999/xlink"
 xmlns:dc="http://purl.org/dc/elements/1.1/"
 xmlns:cc="http://creativecommons.org/ns#"
 xmlns:rdf="http://www.w3.org/1999/02/22-rdf-syntax-ns#"
 height="64"
 width="64">
  <metadata>
    <rdf:RDF>
      <cc:Work>
        <dc:format>image/svg+xml</dc:format>
        <dc:type rdf:resource="http://purl.org/dc/dcmitype/StillImage" />
        <dc:creator>
          <cc:Agent>
            <dc:title>Guglielmi David</dc:title>
          </cc:Agent>
        </dc:creator>
        <cc:license rdf:resource="http://creativecommons.org/licenses/GPL/2.0/" />
        <dc:rights>
          <cc:Agent>
            <dc:title>Peter Zelezny</dc:title>
          </cc:Agent>
        </dc:rights>
        <dc:contributor>
          <cc:Agent>
            <dc:title>Samuel Messner</dc:title>
          </cc:Agent>
        </dc:contributor>
      </cc:Work>
      <cc:License rdf:about="http://creativecommons.org/licenses/GPL/2.0/">
        <cc:requires rdf:resource="http://web.resource.org/cc/Notice" />
        <cc:requires rdf:resource="http://web.resource.org/cc/ShareAlike" />
        <cc:requires rdf:resource="http://web.resource.org/cc/SourceCode" />
        <cc:permits rdf:resource="http://web.resource.org/cc/Reproduction" />
        <cc:permits rdf:resource="http://web.resource.org/cc/Distribution" />
        <cc:permits rdf:resource="http://web.resource.org/cc/DerivativeWorks" />
      </cc:License>
    </rdf:RDF>
  </metadata>
  <defs>
    <linearGradient id="hexchatGradient" x1="0" y1="1" x2="0" y2="0">
      <stop id="hgRedStop" offset="0" style="stop-color: #FF2600; stop-opacity: 1;" />
      <stop id="hgYellowStop" offset="1" style="stop-color: #FFD600; stop-opacity: 1;" />
    </linearGradient>
    <filter inkscape:collect="always" id="dropshadow">
      <feGaussianBlur inkscape:collect="always" stdDeviation="1.9736701" id="dropshadowGaussian" />
    </filter>
  </defs>
  <path
   style="fill: #000000; fill-opacity: 1;"
   d="m 31.62506,4.4248023 c -7.285288,0.0713 -14.595323,0.526836 -15.96875,1.3125 C 12.909458,7.3086297 -0.0321942,29.523731 6.0185229e-5,32.612303 0.0323162,35.700876 13.470952,57.688808 16.25006,59.206053 c 2.779105,1.517245 29.159399,1.258827 31.90625,-0.3125 2.746852,-1.571328 15.688504,-23.786428 15.65625,-26.875 C 63.7803,28.929981 50.372918,6.9107967 47.59381,5.3935523 46.204258,4.6349293 38.910347,4.3535003 31.62506,4.4248023 z m -0.1875,9.2500007 c 3.386631,-0.03246 6.676687,0.05409 8.75,0.28125 l -8.71875,9.71875 -9.0625,-9.5 c 2.055746,-0.283043 5.521157,-0.466366 9.03125,-0.5 z m 17.34375,9.84375 c 2.298293,3.744897 4.302354,7.392556 4.3125,8.34375 0.01126,1.055883 -2.358157,5.507241 -4.875,9.6875 l -9.03125,-8.03125 z m -34.46875,0.25 8.75,9.75 -8.1875,7.875 c -2.482342,-3.992634 -4.707927,-8.110307 -4.71875,-9.125 -0.01021,-0.95736 1.927117,-4.687748 4.15625,-8.5 z m 17.15625,16.90625 9.8125,9.21875 c -4.111037,0.67314 -16.108253,0.781873 -19.46875,0.125 z"
   id="outline"
   sodipodi:nodetypes="ssssssssscccscsccccccsccccc" />
  <path
   style="fill: url(#hexchatGradient); fill-opacity: 1;"
   d="m 31.25006,6.4873027 c -6.857093,0.06521 -13.707297,0.469014 -15,1.1875 -2.585405,1.4369712 -14.780358,21.7692653 -14.75,24.5937503 0.03036,2.824486 12.665486,22.924987 15.28125,24.3125 2.615763,1.387513 27.445846,1.186972 30.03125,-0.25 2.585405,-1.436972 14.780359,-21.769265 14.75,-24.59375 C 61.5322,28.912818 48.897074,8.7810649 46.28131,7.3935527 44.973429,6.6997957 38.107152,6.4220967 31.25006,6.4873027 z m 0.0625,5.0625003 c 5.36199,-0.05245 10.696035,0.19201 11.71875,0.75 0.06132,0.03346 0.143803,0.127745 0.21875,0.1875 l -11.28125,12.59375 -0.5,0.53125 -0.46875,-0.53125 -11.75,-12.3125 c 0.10903,-0.09884 0.228263,-0.201843 0.3125,-0.25 1.010846,-0.577879 6.38801,-0.916306 11.75,-0.96875 z m 18.0625,9.46875 c 2.883844,4.661341 5.612556,9.652893 5.625,10.84375 0.01348,1.290331 -3.064699,7.087557 -6.09375,12.09375 l -11.09375,-9.90625 -0.53125,-0.46875 0.5,-0.46875 11.59375,-12.09375 z m -35.78125,0.03125 10.84375,12.0625 0.4375,0.46875 -0.46875,0.4375 -10.28125,9.90625 c -3.04689,-4.86606 -6.049362,-10.36778 -6.0625,-11.625 -0.01271,-1.216102 2.689239,-6.451996 5.53125,-11.25 z m 17.875,17.78125 0.4375,0.4375 12.34375,11.59375 c -0.318014,0.365376 -0.587006,0.638955 -0.78125,0.75 -2.02169,1.155758 -21.423322,1.397228 -23.46875,0.28125 -0.228202,-0.124506 -0.601742,-0.47821 -1,-0.9375 l 12,-11.6875 0.46875,-0.4375 z"
   id="coloredX" />
</svg>
